<?xml version="1.0"?>
<svg xmlns="http://www.w3.org/2000/svg" width="100" height="100">
<path fill="#FCB034" d="M49.65,6.5 0,93.4h99.5"/>
<path d="M29.3,82.314V61.556h6.273l3.766,14.16l3.725-14.16h6.287v20.759h-3.895V65.974l-4.12,16.341H37.3l-4.106-16.341v16.341H29.3zM53.527,82.314V61.556h8.821c2.219,0,3.831,0.187,4.836,0.56c1.006,0.373,1.811,1.036,2.414,1.989c0.604,0.953,0.906,2.044,0.906,3.271c0,1.559-0.457,2.845-1.373,3.859s-2.284,1.654-4.106,1.918c0.906,0.529,1.654,1.109,2.244,1.742s1.386,1.756,2.386,3.37l2.535,4.05h-5.013l-3.03-4.518c-1.076-1.613-1.813-2.631-2.209-3.051s-0.816-0.708-1.26-0.864c-0.444-0.155-1.147-0.233-2.11-0.233h-0.85v8.666H53.527zM57.719,70.335h3.101c2.012,0,3.267-0.085,3.768-0.255c0.5-0.17,0.892-0.463,1.175-0.878s0.425-0.935,0.425-1.558c0-0.698-0.187-1.263-0.56-1.692s-0.899-0.7-1.579-0.813c-0.34-0.048-1.359-0.071-3.059-0.071h-3.271V70.335zM49.653,10.591l46.324,80.818H3.329zm0,10.051L11.958,86.409h75.39L49.653,20.646z"/>
</svg>