<?xml version="1.0" encoding="UTF-8" standalone="no"?>
<!-- Created with Inkscape (http://www.inkscape.org/) -->

<svg
   xmlns:dc="http://purl.org/dc/elements/1.1/"
   xmlns:cc="http://creativecommons.org/ns#"
   xmlns:rdf="http://www.w3.org/1999/02/22-rdf-syntax-ns#"
   xmlns:svg="http://www.w3.org/2000/svg"
   xmlns="http://www.w3.org/2000/svg"
   xmlns:sodipodi="http://sodipodi.sourceforge.net/DTD/sodipodi-0.dtd"
   xmlns:inkscape="http://www.inkscape.org/namespaces/inkscape"
   width="548.34375"
   height="397.4281"
   id="svg3087"
   version="1.1"
   inkscape:version="0.48.0 r9654"
   sodipodi:docname="Glosnik piezoelektryczny2_red.svg">
  <defs
     id="defs3089">
    <marker
       inkscape:stockid="Arrow1Lstart"
       orient="auto"
       refY="0"
       refX="0"
       id="Arrow1Lstart"
       style="overflow:visible">
      <path
         id="path3915"
         d="M 0,0 5,-5 -12.5,0 5,5 0,0 z"
         style="fill-rule:evenodd;stroke:#000000;stroke-width:1pt;marker-start:none"
         transform="matrix(0.8,0,0,0.8,10,0)"
         inkscape:connector-curvature="0" />
    </marker>
    <marker
       inkscape:stockid="Arrow1Lend"
       orient="auto"
       refY="0"
       refX="0"
       id="Arrow1Lend"
       style="overflow:visible">
      <path
         id="path3918"
         d="M 0,0 5,-5 -12.5,0 5,5 0,0 z"
         style="fill-rule:evenodd;stroke:#000000;stroke-width:1pt;marker-start:none"
         transform="matrix(-0.8,0,0,-0.8,-10,0)"
         inkscape:connector-curvature="0" />
    </marker>
  </defs>
  <sodipodi:namedview
     id="base"
     pagecolor="#ffffff"
     bordercolor="#666666"
     borderopacity="1.0"
     inkscape:pageopacity="0.0"
     inkscape:pageshadow="2"
     inkscape:zoom="1"
     inkscape:cx="366.85997"
     inkscape:cy="317.24834"
     inkscape:document-units="px"
     inkscape:current-layer="layer1"
     showgrid="false"
     inkscape:window-width="1280"
     inkscape:window-height="998"
     inkscape:window-x="1916"
     inkscape:window-y="-4"
     inkscape:window-maximized="1"
     showguides="true"
     inkscape:guide-bbox="true"
     fit-margin-top="20"
     fit-margin-bottom="30"
     fit-margin-left="20"
     fit-margin-right="20">
    <inkscape:grid
       type="xygrid"
       id="grid3106"
       empspacing="5"
       visible="true"
       enabled="true"
       snapvisiblegridlinesonly="true" />
  </sodipodi:namedview>
  <metadata
     id="metadata3092">
    <rdf:RDF>
      <cc:Work
         rdf:about="">
        <dc:format>image/svg+xml</dc:format>
        <dc:type
           rdf:resource="http://purl.org/dc/dcmitype/StillImage" />
        <dc:title></dc:title>
      </cc:Work>
    </rdf:RDF>
  </metadata>
  <g
     inkscape:label="Layer 1"
     inkscape:groupmode="layer"
     id="layer1"
     transform="translate(-47.15625,-256.86218)">
    <path
       style="fill:none;stroke:#000000;stroke-width:1px;stroke-linecap:butt;stroke-linejoin:miter;stroke-opacity:1;marker-start:url(#Arrow1Lstart);marker-end:none"
       d="m 467.5,337.36218 0,-60"
       id="path4470"
       inkscape:connector-curvature="0"
       sodipodi:nodetypes="cc" />
    <path
       inkscape:connector-curvature="0"
       id="path4468"
       d="m 467.5,392.36218 0,60"
       style="fill:none;stroke:#000000;stroke-width:1;stroke-linecap:butt;stroke-linejoin:miter;stroke-miterlimit:0;stroke-opacity:1;stroke-dasharray:none;marker-start:url(#Arrow1Lstart);marker-end:none"
       sodipodi:nodetypes="cc" />
    <rect
       style="fill:#b4b4b4;fill-opacity:1;stroke:#000000;stroke-width:2;stroke-linecap:round;stroke-linejoin:round;stroke-miterlimit:4;stroke-opacity:1;stroke-dasharray:none;stroke-dashoffset:0"
       id="rect3108"
       width="135"
       height="15"
       x="150"
       y="337.36218" />
    <rect
       style="fill:#b4b4b4;fill-opacity:1;stroke:#000000;stroke-width:2;stroke-linecap:round;stroke-linejoin:round;stroke-miterlimit:4;stroke-opacity:1;stroke-dasharray:none;stroke-dashoffset:0"
       id="rect3110"
       width="135"
       height="15"
       x="150"
       y="377.36218" />
    <path
       style="fill:none;stroke:#000000;stroke-width:2;stroke-linecap:butt;stroke-linejoin:miter;stroke-miterlimit:4;stroke-opacity:1;stroke-dasharray:none"
       d="m 160,352.36218 0,25"
       id="path3112"
       inkscape:connector-curvature="0" />
    <path
       style="fill:none;stroke:#000000;stroke-width:2;stroke-linecap:butt;stroke-linejoin:miter;stroke-miterlimit:4;stroke-opacity:1;stroke-dasharray:none"
       d="m 275,352.36218 0,25"
       id="path3114"
       inkscape:connector-curvature="0" />
    <path
       style="fill:none;stroke:#000000;stroke-width:1px;stroke-linecap:butt;stroke-linejoin:miter;stroke-opacity:1"
       d="m 165,377.36218 25,-25"
       id="path3116"
       inkscape:connector-curvature="0" />
    <path
       inkscape:connector-curvature="0"
       id="path3118"
       d="m 175,377.36218 25,-25"
       style="fill:none;stroke:#000000;stroke-width:1px;stroke-linecap:butt;stroke-linejoin:miter;stroke-opacity:1" />
    <path
       style="fill:none;stroke:#000000;stroke-width:1px;stroke-linecap:butt;stroke-linejoin:miter;stroke-opacity:1"
       d="m 185,377.36218 25,-25"
       id="path3120"
       inkscape:connector-curvature="0" />
    <path
       inkscape:connector-curvature="0"
       id="path3122"
       d="m 195,377.36218 25,-25"
       style="fill:none;stroke:#000000;stroke-width:1px;stroke-linecap:butt;stroke-linejoin:miter;stroke-opacity:1" />
    <path
       style="fill:none;stroke:#000000;stroke-width:1px;stroke-linecap:butt;stroke-linejoin:miter;stroke-opacity:1"
       d="m 205,377.36218 25,-25"
       id="path3124"
       inkscape:connector-curvature="0" />
    <path
       inkscape:connector-curvature="0"
       id="path3126"
       d="m 215,377.36218 25,-25"
       style="fill:none;stroke:#000000;stroke-width:1px;stroke-linecap:butt;stroke-linejoin:miter;stroke-opacity:1" />
    <path
       style="fill:none;stroke:#000000;stroke-width:1px;stroke-linecap:butt;stroke-linejoin:miter;stroke-opacity:1"
       d="m 225,377.36218 25,-25"
       id="path3128"
       inkscape:connector-curvature="0" />
    <path
       inkscape:connector-curvature="0"
       id="path3130"
       d="m 235,377.36218 25,-25"
       style="fill:none;stroke:#000000;stroke-width:1px;stroke-linecap:butt;stroke-linejoin:miter;stroke-opacity:1" />
    <path
       style="fill:none;stroke:#000000;stroke-width:1px;stroke-linecap:butt;stroke-linejoin:miter;stroke-opacity:1"
       d="m 245,377.36218 25,-25"
       id="path3132"
       inkscape:connector-curvature="0" />
    <path
       inkscape:connector-curvature="0"
       id="path3134"
       d="m 255,377.36218 20,-20"
       style="fill:none;stroke:#000000;stroke-width:1px;stroke-linecap:butt;stroke-linejoin:miter;stroke-opacity:1"
       sodipodi:nodetypes="cc" />
    <path
       style="fill:none;stroke:#000000;stroke-width:1px;stroke-linecap:butt;stroke-linejoin:miter;stroke-opacity:1"
       d="m 265,377.36218 10,-10"
       id="path3136"
       inkscape:connector-curvature="0"
       sodipodi:nodetypes="cc" />
    <path
       inkscape:connector-curvature="0"
       id="path3138"
       d="m 160,372.36218 20,-20"
       style="fill:none;stroke:#000000;stroke-width:1px;stroke-linecap:butt;stroke-linejoin:miter;stroke-opacity:1"
       sodipodi:nodetypes="cc" />
    <path
       style="fill:none;stroke:#000000;stroke-width:1px;stroke-linecap:butt;stroke-linejoin:miter;stroke-opacity:1"
       d="m 160,362.36218 10,-10"
       id="path3140"
       inkscape:connector-curvature="0"
       sodipodi:nodetypes="cc" />
    <path
       style="fill:none;stroke:#000000;stroke-width:1px;stroke-linecap:butt;stroke-linejoin:miter;stroke-opacity:1;marker-end:url(#Arrow1Lend)"
       d="m 217.5,392.36218 0,60"
       id="path3910"
       inkscape:connector-curvature="0"
       sodipodi:nodetypes="cc" />
    <path
       inkscape:connector-curvature="0"
       id="path4356"
       d="m 217.5,337.36218 0,-60"
       style="fill:none;stroke:#000000;stroke-width:1px;stroke-linecap:butt;stroke-linejoin:miter;stroke-opacity:1;marker-end:url(#Arrow1Lend)"
       sodipodi:nodetypes="cc" />
    <g
       style="font-size:40px;font-style:normal;font-weight:normal;line-height:125%;letter-spacing:0px;word-spacing:0px;fill:#000000;fill-opacity:1;stroke:none;font-family:Bitstream Vera Sans"
       id="text4362">
      <path
         d="m 162.14662,329.94092 0,-6.28125 -6.23437,0 0,-2.625 6.23437,0 0,-6.23438 2.65625,0 0,6.23438 6.23438,0 0,2.625 -6.23438,0 0,6.28125 z"
         style="font-size:32px"
         id="path6394" />
    </g>
    <g
       style="font-size:40px;font-style:normal;font-weight:normal;line-height:125%;letter-spacing:0px;word-spacing:0px;fill:#000000;fill-opacity:1;stroke:none;font-family:Bitstream Vera Sans"
       id="text4368">
      <path
         d="m 183.14662,329.94092 0,-6.28125 -6.23437,0 0,-2.625 6.23437,0 0,-6.23438 2.65625,0 0,6.23438 6.23438,0 0,2.625 -6.23438,0 0,6.28125 z"
         style="font-size:32px"
         id="path6391" />
    </g>
    <g
       style="font-size:40px;font-style:normal;font-weight:normal;line-height:125%;letter-spacing:0px;word-spacing:0px;fill:#000000;fill-opacity:1;stroke:none;font-family:Bitstream Vera Sans"
       id="text4372">
      <path
         d="m 204.14662,329.94092 0,-6.28125 -6.23437,0 0,-2.625 6.23437,0 0,-6.23438 2.65625,0 0,6.23438 6.23438,0 0,2.625 -6.23438,0 0,6.28125 z"
         style="font-size:32px"
         id="path6388" />
    </g>
    <g
       style="font-size:40px;font-style:normal;font-weight:normal;line-height:125%;letter-spacing:0px;word-spacing:0px;fill:#000000;fill-opacity:1;stroke:none;font-family:Bitstream Vera Sans"
       id="text4392">
      <path
         d="m 228.14662,329.94092 0,-6.28125 -6.23437,0 0,-2.625 6.23437,0 0,-6.23438 2.65625,0 0,6.23438 6.23438,0 0,2.625 -6.23438,0 0,6.28125 z"
         style="font-size:32px"
         id="path6385" />
    </g>
    <g
       style="font-size:40px;font-style:normal;font-weight:normal;line-height:125%;letter-spacing:0px;word-spacing:0px;fill:#000000;fill-opacity:1;stroke:none;font-family:Bitstream Vera Sans"
       id="text4396">
      <path
         d="m 249.14662,329.94092 0,-6.28125 -6.23437,0 0,-2.625 6.23437,0 0,-6.23438 2.65625,0 0,6.23438 6.23438,0 0,2.625 -6.23438,0 0,6.28125 z"
         style="font-size:32px"
         id="path6382" />
    </g>
    <g
       style="font-size:40px;font-style:normal;font-weight:normal;line-height:125%;letter-spacing:0px;word-spacing:0px;fill:#000000;fill-opacity:1;stroke:none;font-family:Bitstream Vera Sans"
       id="text4400">
      <path
         d="m 270.14664,329.94092 0,-6.28125 -6.23438,0 0,-2.625 6.23438,0 0,-6.23438 2.65625,0 0,6.23438 6.23437,0 0,2.625 -6.23437,0 0,6.28125 z"
         style="font-size:32px"
         id="path6379" />
    </g>
    <text
       sodipodi:linespacing="125%"
       id="text4404"
       y="417.76843"
       x="156.80048"
       style="font-size:40px;font-style:normal;font-weight:normal;line-height:125%;letter-spacing:0px;word-spacing:0px;fill:#000000;fill-opacity:1;stroke:none;font-family:Bitstream Vera Sans"
       xml:space="preserve"><tspan
         y="417.76843"
         x="156.80048"
         id="tspan4406"
         sodipodi:role="line">-</tspan></text>
    <text
       xml:space="preserve"
       style="font-size:40px;font-style:normal;font-weight:normal;line-height:125%;letter-spacing:0px;word-spacing:0px;fill:#000000;fill-opacity:1;stroke:none;font-family:Bitstream Vera Sans"
       x="177.80048"
       y="417.76843"
       id="text4408"
       sodipodi:linespacing="125%"><tspan
         sodipodi:role="line"
         id="tspan4410"
         x="177.80048"
         y="417.76843">-</tspan></text>
    <text
       sodipodi:linespacing="125%"
       id="text4412"
       y="417.76843"
       x="198.80048"
       style="font-size:40px;font-style:normal;font-weight:normal;line-height:125%;letter-spacing:0px;word-spacing:0px;fill:#000000;fill-opacity:1;stroke:none;font-family:Bitstream Vera Sans"
       xml:space="preserve"><tspan
         y="417.76843"
         x="198.80048"
         id="tspan4414"
         sodipodi:role="line">-</tspan></text>
    <text
       xml:space="preserve"
       style="font-size:40px;font-style:normal;font-weight:normal;line-height:125%;letter-spacing:0px;word-spacing:0px;fill:#000000;fill-opacity:1;stroke:none;font-family:Bitstream Vera Sans"
       x="222.80048"
       y="417.76843"
       id="text4416"
       sodipodi:linespacing="125%"><tspan
         sodipodi:role="line"
         id="tspan4418"
         x="222.80048"
         y="417.76843">-</tspan></text>
    <text
       sodipodi:linespacing="125%"
       id="text4420"
       y="417.76843"
       x="243.80048"
       style="font-size:40px;font-style:normal;font-weight:normal;line-height:125%;letter-spacing:0px;word-spacing:0px;fill:#000000;fill-opacity:1;stroke:none;font-family:Bitstream Vera Sans"
       xml:space="preserve"><tspan
         y="417.76843"
         x="243.80048"
         id="tspan4422"
         sodipodi:role="line">-</tspan></text>
    <text
       xml:space="preserve"
       style="font-size:40px;font-style:normal;font-weight:normal;line-height:125%;letter-spacing:0px;word-spacing:0px;fill:#000000;fill-opacity:1;stroke:none;font-family:Bitstream Vera Sans"
       x="264.80048"
       y="417.76843"
       id="text4424"
       sodipodi:linespacing="125%"><tspan
         sodipodi:role="line"
         id="tspan4426"
         x="264.80048"
         y="417.76843">-</tspan></text>
    <rect
       y="337.36218"
       x="400"
       height="15"
       width="135"
       id="rect4434"
       style="fill:#b4b4b4;fill-opacity:1;stroke:#000000;stroke-width:2;stroke-linecap:round;stroke-linejoin:round;stroke-miterlimit:4;stroke-opacity:1;stroke-dasharray:none;stroke-dashoffset:0" />
    <rect
       y="377.36218"
       x="400"
       height="15"
       width="135"
       id="rect4436"
       style="fill:#b4b4b4;fill-opacity:1;stroke:#000000;stroke-width:2;stroke-linecap:round;stroke-linejoin:round;stroke-miterlimit:4;stroke-opacity:1;stroke-dasharray:none;stroke-dashoffset:0" />
    <path
       inkscape:connector-curvature="0"
       id="path4438"
       d="m 410,352.36218 0,25"
       style="fill:none;stroke:#000000;stroke-width:2;stroke-linecap:butt;stroke-linejoin:miter;stroke-miterlimit:4;stroke-opacity:1;stroke-dasharray:none" />
    <path
       inkscape:connector-curvature="0"
       id="path4440"
       d="m 525,352.36218 0,25"
       style="fill:none;stroke:#000000;stroke-width:2;stroke-linecap:butt;stroke-linejoin:miter;stroke-miterlimit:4;stroke-opacity:1;stroke-dasharray:none" />
    <path
       inkscape:connector-curvature="0"
       id="path4442"
       d="m 415,377.36218 25,-25"
       style="fill:none;stroke:#000000;stroke-width:1px;stroke-linecap:butt;stroke-linejoin:miter;stroke-opacity:1" />
    <path
       style="fill:none;stroke:#000000;stroke-width:1px;stroke-linecap:butt;stroke-linejoin:miter;stroke-opacity:1"
       d="m 425,377.36218 25,-25"
       id="path4444"
       inkscape:connector-curvature="0" />
    <path
       inkscape:connector-curvature="0"
       id="path4446"
       d="m 435,377.36218 25,-25"
       style="fill:none;stroke:#000000;stroke-width:1px;stroke-linecap:butt;stroke-linejoin:miter;stroke-opacity:1" />
    <path
       style="fill:none;stroke:#000000;stroke-width:1px;stroke-linecap:butt;stroke-linejoin:miter;stroke-opacity:1"
       d="m 445,377.36218 25,-25"
       id="path4448"
       inkscape:connector-curvature="0" />
    <path
       inkscape:connector-curvature="0"
       id="path4450"
       d="m 455,377.36218 25,-25"
       style="fill:none;stroke:#000000;stroke-width:1px;stroke-linecap:butt;stroke-linejoin:miter;stroke-opacity:1" />
    <path
       style="fill:none;stroke:#000000;stroke-width:1px;stroke-linecap:butt;stroke-linejoin:miter;stroke-opacity:1"
       d="m 465,377.36218 25,-25"
       id="path4452"
       inkscape:connector-curvature="0" />
    <path
       inkscape:connector-curvature="0"
       id="path4454"
       d="m 475,377.36218 25,-25"
       style="fill:none;stroke:#000000;stroke-width:1px;stroke-linecap:butt;stroke-linejoin:miter;stroke-opacity:1" />
    <path
       style="fill:none;stroke:#000000;stroke-width:1px;stroke-linecap:butt;stroke-linejoin:miter;stroke-opacity:1"
       d="m 485,377.36218 25,-25"
       id="path4456"
       inkscape:connector-curvature="0" />
    <path
       inkscape:connector-curvature="0"
       id="path4458"
       d="m 495,377.36218 25,-25"
       style="fill:none;stroke:#000000;stroke-width:1px;stroke-linecap:butt;stroke-linejoin:miter;stroke-opacity:1" />
    <path
       sodipodi:nodetypes="cc"
       style="fill:none;stroke:#000000;stroke-width:1px;stroke-linecap:butt;stroke-linejoin:miter;stroke-opacity:1"
       d="m 505,377.36218 20,-20"
       id="path4460"
       inkscape:connector-curvature="0" />
    <path
       sodipodi:nodetypes="cc"
       inkscape:connector-curvature="0"
       id="path4462"
       d="m 515,377.36218 10,-10"
       style="fill:none;stroke:#000000;stroke-width:1px;stroke-linecap:butt;stroke-linejoin:miter;stroke-opacity:1" />
    <path
       sodipodi:nodetypes="cc"
       style="fill:none;stroke:#000000;stroke-width:1px;stroke-linecap:butt;stroke-linejoin:miter;stroke-opacity:1"
       d="m 410,372.36218 20,-20"
       id="path4464"
       inkscape:connector-curvature="0" />
    <path
       sodipodi:nodetypes="cc"
       inkscape:connector-curvature="0"
       id="path4466"
       d="m 410,362.36218 10,-10"
       style="fill:none;stroke:#000000;stroke-width:1px;stroke-linecap:butt;stroke-linejoin:miter;stroke-opacity:1" />
    <g
       transform="scale(1,-1)"
       style="font-size:40px;font-style:normal;font-weight:normal;line-height:125%;letter-spacing:0px;word-spacing:0px;fill:#000000;fill-opacity:1;stroke:none;font-family:Bitstream Vera Sans"
       id="text4472">
      <path
         d="m 412.14661,-400.03406 0,-6.28125 -6.23438,0 0,-2.625 6.23438,0 0,-6.23437 2.65625,0 0,6.23437 6.23437,0 0,2.625 -6.23437,0 0,6.28125 z"
         style="font-size:32px"
         id="path6502" />
    </g>
    <g
       transform="scale(1,-1)"
       style="font-size:40px;font-style:normal;font-weight:normal;line-height:125%;letter-spacing:0px;word-spacing:0px;fill:#000000;fill-opacity:1;stroke:none;font-family:Bitstream Vera Sans"
       id="text4476">
      <path
         d="m 433.14661,-400.03406 0,-6.28125 -6.23438,0 0,-2.625 6.23438,0 0,-6.23437 2.65625,0 0,6.23437 6.23437,0 0,2.625 -6.23437,0 0,6.28125 z"
         style="font-size:32px"
         id="path6499" />
    </g>
    <g
       transform="scale(1,-1)"
       style="font-size:40px;font-style:normal;font-weight:normal;line-height:125%;letter-spacing:0px;word-spacing:0px;fill:#000000;fill-opacity:1;stroke:none;font-family:Bitstream Vera Sans"
       id="text4480">
      <path
         d="m 454.14661,-400.03406 0,-6.28125 -6.23438,0 0,-2.625 6.23438,0 0,-6.23437 2.65625,0 0,6.23437 6.23437,0 0,2.625 -6.23437,0 0,6.28125 z"
         style="font-size:32px"
         id="path6496" />
    </g>
    <g
       transform="scale(1,-1)"
       style="font-size:40px;font-style:normal;font-weight:normal;line-height:125%;letter-spacing:0px;word-spacing:0px;fill:#000000;fill-opacity:1;stroke:none;font-family:Bitstream Vera Sans"
       id="text4484">
      <path
         d="m 478.14661,-400.03406 0,-6.28125 -6.23438,0 0,-2.625 6.23438,0 0,-6.23437 2.65625,0 0,6.23437 6.23437,0 0,2.625 -6.23437,0 0,6.28125 z"
         style="font-size:32px"
         id="path6493" />
    </g>
    <g
       transform="scale(1,-1)"
       style="font-size:40px;font-style:normal;font-weight:normal;line-height:125%;letter-spacing:0px;word-spacing:0px;fill:#000000;fill-opacity:1;stroke:none;font-family:Bitstream Vera Sans"
       id="text4488">
      <path
         d="m 499.14661,-400.03406 0,-6.28125 -6.23438,0 0,-2.625 6.23438,0 0,-6.23437 2.65625,0 0,6.23437 6.23437,0 0,2.625 -6.23437,0 0,6.28125 z"
         style="font-size:32px"
         id="path6490" />
    </g>
    <g
       transform="scale(1,-1)"
       style="font-size:40px;font-style:normal;font-weight:normal;line-height:125%;letter-spacing:0px;word-spacing:0px;fill:#000000;fill-opacity:1;stroke:none;font-family:Bitstream Vera Sans"
       id="text4492">
      <path
         d="m 520.14661,-400.03406 0,-6.28125 -6.23438,0 0,-2.625 6.23438,0 0,-6.23437 2.65625,0 0,6.23437 6.23437,0 0,2.625 -6.23437,0 0,6.28125 z"
         style="font-size:32px"
         id="path6487" />
    </g>
    <g
       transform="scale(1,-1)"
       style="font-size:40px;font-style:normal;font-weight:normal;line-height:125%;letter-spacing:0px;word-spacing:0px;fill:#000000;fill-opacity:1;stroke:none;font-family:Bitstream Vera Sans"
       id="text4496">
      <path
         d="m 408.07001,-320.80029 0,-3.53516 10.80078,0 0,3.53516 z"
         style=""
         id="path6412" />
    </g>
    <g
       transform="scale(1,-1)"
       style="font-size:40px;font-style:normal;font-weight:normal;line-height:125%;letter-spacing:0px;word-spacing:0px;fill:#000000;fill-opacity:1;stroke:none;font-family:Bitstream Vera Sans"
       id="text4500">
      <path
         d="m 429.07001,-320.80029 0,-3.53516 10.80078,0 0,3.53516 z"
         style=""
         id="path6409" />
    </g>
    <g
       transform="scale(1,-1)"
       style="font-size:40px;font-style:normal;font-weight:normal;line-height:125%;letter-spacing:0px;word-spacing:0px;fill:#000000;fill-opacity:1;stroke:none;font-family:Bitstream Vera Sans"
       id="text4504">
      <path
         d="m 450.07001,-320.80029 0,-3.53516 10.80078,0 0,3.53516 z"
         style=""
         id="path6406" />
    </g>
    <g
       transform="scale(1,-1)"
       style="font-size:40px;font-style:normal;font-weight:normal;line-height:125%;letter-spacing:0px;word-spacing:0px;fill:#000000;fill-opacity:1;stroke:none;font-family:Bitstream Vera Sans"
       id="text4508">
      <path
         d="m 474.07001,-320.80029 0,-3.53516 10.80078,0 0,3.53516 z"
         style=""
         id="path6403" />
    </g>
    <g
       transform="scale(1,-1)"
       style="font-size:40px;font-style:normal;font-weight:normal;line-height:125%;letter-spacing:0px;word-spacing:0px;fill:#000000;fill-opacity:1;stroke:none;font-family:Bitstream Vera Sans"
       id="text4512">
      <path
         d="m 495.07001,-320.80029 0,-3.53516 10.80078,0 0,3.53516 z"
         style=""
         id="path6400" />
    </g>
    <g
       transform="scale(1,-1)"
       style="font-size:40px;font-style:normal;font-weight:normal;line-height:125%;letter-spacing:0px;word-spacing:0px;fill:#000000;fill-opacity:1;stroke:none;font-family:Bitstream Vera Sans"
       id="text4516">
      <path
         d="m 516.07001,-320.80029 0,-3.53516 10.80078,0 0,3.53516 z"
         style=""
         id="path6397" />
    </g>
    <rect
       y="546.47778"
       x="150"
       height="15"
       width="135"
       id="rect5442"
       style="fill:#b4b4b4;fill-opacity:1;stroke:#000000;stroke-width:2;stroke-linecap:round;stroke-linejoin:round;stroke-miterlimit:4;stroke-opacity:1;stroke-dasharray:none;stroke-dashoffset:0" />
    <rect
       y="586.47778"
       x="150"
       height="15"
       width="135"
       id="rect5444"
       style="fill:#b4b4b4;fill-opacity:1;stroke:#000000;stroke-width:2;stroke-linecap:round;stroke-linejoin:round;stroke-miterlimit:4;stroke-opacity:1;stroke-dasharray:none;stroke-dashoffset:0" />
    <path
       inkscape:connector-curvature="0"
       id="path5446"
       d="m 160,561.4778 0,25"
       style="fill:none;stroke:#000000;stroke-width:2;stroke-linecap:butt;stroke-linejoin:miter;stroke-miterlimit:4;stroke-opacity:1;stroke-dasharray:none" />
    <path
       inkscape:connector-curvature="0"
       id="path5448"
       d="m 275,561.4778 0,25"
       style="fill:none;stroke:#000000;stroke-width:2;stroke-linecap:butt;stroke-linejoin:miter;stroke-miterlimit:4;stroke-opacity:1;stroke-dasharray:none" />
    <path
       inkscape:connector-curvature="0"
       id="path5450"
       d="m 165,586.4778 25,-25"
       style="fill:none;stroke:#000000;stroke-width:1px;stroke-linecap:butt;stroke-linejoin:miter;stroke-opacity:1" />
    <path
       style="fill:none;stroke:#000000;stroke-width:1px;stroke-linecap:butt;stroke-linejoin:miter;stroke-opacity:1"
       d="m 175,586.4778 25,-25"
       id="path5452"
       inkscape:connector-curvature="0" />
    <path
       inkscape:connector-curvature="0"
       id="path5454"
       d="m 185,586.4778 25,-25"
       style="fill:none;stroke:#000000;stroke-width:1px;stroke-linecap:butt;stroke-linejoin:miter;stroke-opacity:1" />
    <path
       style="fill:none;stroke:#000000;stroke-width:1px;stroke-linecap:butt;stroke-linejoin:miter;stroke-opacity:1"
       d="m 195,586.4778 25,-25"
       id="path5456"
       inkscape:connector-curvature="0" />
    <path
       inkscape:connector-curvature="0"
       id="path5458"
       d="m 205,586.4778 25,-25"
       style="fill:none;stroke:#000000;stroke-width:1px;stroke-linecap:butt;stroke-linejoin:miter;stroke-opacity:1" />
    <path
       style="fill:none;stroke:#000000;stroke-width:1px;stroke-linecap:butt;stroke-linejoin:miter;stroke-opacity:1"
       d="m 215,586.4778 25,-25"
       id="path5460"
       inkscape:connector-curvature="0" />
    <path
       inkscape:connector-curvature="0"
       id="path5462"
       d="m 225,586.4778 25,-25"
       style="fill:none;stroke:#000000;stroke-width:1px;stroke-linecap:butt;stroke-linejoin:miter;stroke-opacity:1" />
    <path
       style="fill:none;stroke:#000000;stroke-width:1px;stroke-linecap:butt;stroke-linejoin:miter;stroke-opacity:1"
       d="m 235,586.4778 25,-25"
       id="path5464"
       inkscape:connector-curvature="0" />
    <path
       inkscape:connector-curvature="0"
       id="path5466"
       d="m 245,586.4778 25,-25"
       style="fill:none;stroke:#000000;stroke-width:1px;stroke-linecap:butt;stroke-linejoin:miter;stroke-opacity:1" />
    <path
       sodipodi:nodetypes="cc"
       style="fill:none;stroke:#000000;stroke-width:1px;stroke-linecap:butt;stroke-linejoin:miter;stroke-opacity:1"
       d="m 255,586.4778 20,-20"
       id="path5468"
       inkscape:connector-curvature="0" />
    <path
       sodipodi:nodetypes="cc"
       inkscape:connector-curvature="0"
       id="path5470"
       d="m 265,586.4778 10,-10"
       style="fill:none;stroke:#000000;stroke-width:1px;stroke-linecap:butt;stroke-linejoin:miter;stroke-opacity:1" />
    <path
       sodipodi:nodetypes="cc"
       style="fill:none;stroke:#000000;stroke-width:1px;stroke-linecap:butt;stroke-linejoin:miter;stroke-opacity:1"
       d="m 160,581.4778 20,-20"
       id="path5472"
       inkscape:connector-curvature="0" />
    <path
       sodipodi:nodetypes="cc"
       inkscape:connector-curvature="0"
       id="path5474"
       d="m 160,571.4778 10,-10"
       style="fill:none;stroke:#000000;stroke-width:1px;stroke-linecap:butt;stroke-linejoin:miter;stroke-opacity:1" />
    <path
       style="fill:none;stroke:#000000;stroke-width:1px;stroke-linecap:butt;stroke-linejoin:miter;stroke-opacity:1;marker-end:url(#Arrow1Lend)"
       d="m 275,573.99967 50,0"
       id="path5478"
       inkscape:connector-curvature="0"
       sodipodi:nodetypes="cc" />
    <g
       style="font-size:40px;font-style:normal;font-weight:normal;line-height:125%;letter-spacing:0px;word-spacing:0px;fill:#000000;fill-opacity:1;stroke:none;font-family:Bitstream Vera Sans"
       id="text5480">
      <path
         d="m 162.14662,539.05652 0,-6.28125 -6.23437,0 0,-2.625 6.23437,0 0,-6.23438 2.65625,0 0,6.23438 6.23438,0 0,2.625 -6.23438,0 0,6.28125 z"
         style="font-size:32px"
         id="path6466" />
    </g>
    <g
       style="font-size:40px;font-style:normal;font-weight:normal;line-height:125%;letter-spacing:0px;word-spacing:0px;fill:#000000;fill-opacity:1;stroke:none;font-family:Bitstream Vera Sans"
       id="text5484">
      <path
         d="m 183.14662,539.05652 0,-6.28125 -6.23437,0 0,-2.625 6.23437,0 0,-6.23438 2.65625,0 0,6.23438 6.23438,0 0,2.625 -6.23438,0 0,6.28125 z"
         style="font-size:32px"
         id="path6463" />
    </g>
    <g
       style="font-size:40px;font-style:normal;font-weight:normal;line-height:125%;letter-spacing:0px;word-spacing:0px;fill:#000000;fill-opacity:1;stroke:none;font-family:Bitstream Vera Sans"
       id="text5488">
      <path
         d="m 204.14662,539.05652 0,-6.28125 -6.23437,0 0,-2.625 6.23437,0 0,-6.23438 2.65625,0 0,6.23438 6.23438,0 0,2.625 -6.23438,0 0,6.28125 z"
         style="font-size:32px"
         id="path6460" />
    </g>
    <g
       style="font-size:40px;font-style:normal;font-weight:normal;line-height:125%;letter-spacing:0px;word-spacing:0px;fill:#000000;fill-opacity:1;stroke:none;font-family:Bitstream Vera Sans"
       id="text5492">
      <path
         d="m 228.14662,539.05652 0,-6.28125 -6.23437,0 0,-2.625 6.23437,0 0,-6.23438 2.65625,0 0,6.23438 6.23438,0 0,2.625 -6.23438,0 0,6.28125 z"
         style="font-size:32px"
         id="path6457" />
    </g>
    <g
       style="font-size:40px;font-style:normal;font-weight:normal;line-height:125%;letter-spacing:0px;word-spacing:0px;fill:#000000;fill-opacity:1;stroke:none;font-family:Bitstream Vera Sans"
       id="text5496">
      <path
         d="m 249.14662,539.05652 0,-6.28125 -6.23437,0 0,-2.625 6.23437,0 0,-6.23438 2.65625,0 0,6.23438 6.23438,0 0,2.625 -6.23438,0 0,6.28125 z"
         style="font-size:32px"
         id="path6454" />
    </g>
    <g
       style="font-size:40px;font-style:normal;font-weight:normal;line-height:125%;letter-spacing:0px;word-spacing:0px;fill:#000000;fill-opacity:1;stroke:none;font-family:Bitstream Vera Sans"
       id="text5500">
      <path
         d="m 270.14664,539.05652 0,-6.28125 -6.23438,0 0,-2.625 6.23438,0 0,-6.23438 2.65625,0 0,6.23438 6.23437,0 0,2.625 -6.23437,0 0,6.28125 z"
         style="font-size:32px"
         id="path6451" />
    </g>
    <g
       style="font-size:40px;font-style:normal;font-weight:normal;line-height:125%;letter-spacing:0px;word-spacing:0px;fill:#000000;fill-opacity:1;stroke:none;font-family:Bitstream Vera Sans"
       id="text5504">
      <path
         d="m 158.07001,618.29028 0,-3.53515 10.80078,0 0,3.53515 z"
         style=""
         id="path6448" />
    </g>
    <g
       style="font-size:40px;font-style:normal;font-weight:normal;line-height:125%;letter-spacing:0px;word-spacing:0px;fill:#000000;fill-opacity:1;stroke:none;font-family:Bitstream Vera Sans"
       id="text5508">
      <path
         d="m 179.07001,618.29028 0,-3.53515 10.80078,0 0,3.53515 z"
         style=""
         id="path6445" />
    </g>
    <g
       style="font-size:40px;font-style:normal;font-weight:normal;line-height:125%;letter-spacing:0px;word-spacing:0px;fill:#000000;fill-opacity:1;stroke:none;font-family:Bitstream Vera Sans"
       id="text5512">
      <path
         d="m 200.07001,618.29028 0,-3.53515 10.80078,0 0,3.53515 z"
         style=""
         id="path6442" />
    </g>
    <g
       style="font-size:40px;font-style:normal;font-weight:normal;line-height:125%;letter-spacing:0px;word-spacing:0px;fill:#000000;fill-opacity:1;stroke:none;font-family:Bitstream Vera Sans"
       id="text5516">
      <path
         d="m 224.07001,618.29028 0,-3.53515 10.80078,0 0,3.53515 z"
         style=""
         id="path6439" />
    </g>
    <g
       style="font-size:40px;font-style:normal;font-weight:normal;line-height:125%;letter-spacing:0px;word-spacing:0px;fill:#000000;fill-opacity:1;stroke:none;font-family:Bitstream Vera Sans"
       id="text5520">
      <path
         d="m 245.07001,618.29028 0,-3.53515 10.80078,0 0,3.53515 z"
         style=""
         id="path6436" />
    </g>
    <g
       style="font-size:40px;font-style:normal;font-weight:normal;line-height:125%;letter-spacing:0px;word-spacing:0px;fill:#000000;fill-opacity:1;stroke:none;font-family:Bitstream Vera Sans"
       id="text5524">
      <path
         d="m 266.07001,618.29028 0,-3.53515 10.80078,0 0,3.53515 z"
         style=""
         id="path6433" />
    </g>
    <rect
       style="fill:#b4b4b4;fill-opacity:1;stroke:#000000;stroke-width:2;stroke-linecap:round;stroke-linejoin:round;stroke-miterlimit:4;stroke-opacity:1;stroke-dasharray:none;stroke-dashoffset:0"
       id="rect5528"
       width="135"
       height="15"
       x="400"
       y="546.47778" />
    <rect
       style="fill:#b4b4b4;fill-opacity:1;stroke:#000000;stroke-width:2;stroke-linecap:round;stroke-linejoin:round;stroke-miterlimit:4;stroke-opacity:1;stroke-dasharray:none;stroke-dashoffset:0"
       id="rect5530"
       width="135"
       height="15"
       x="400"
       y="586.47778" />
    <path
       style="fill:none;stroke:#000000;stroke-width:2;stroke-linecap:butt;stroke-linejoin:miter;stroke-miterlimit:4;stroke-opacity:1;stroke-dasharray:none"
       d="m 410,561.4778 0,25"
       id="path5532"
       inkscape:connector-curvature="0" />
    <path
       style="fill:none;stroke:#000000;stroke-width:2;stroke-linecap:butt;stroke-linejoin:miter;stroke-miterlimit:4;stroke-opacity:1;stroke-dasharray:none"
       d="m 525,561.4778 0,25"
       id="path5534"
       inkscape:connector-curvature="0" />
    <path
       style="fill:none;stroke:#000000;stroke-width:1px;stroke-linecap:butt;stroke-linejoin:miter;stroke-opacity:1"
       d="m 415,586.4778 25,-25"
       id="path5536"
       inkscape:connector-curvature="0" />
    <path
       inkscape:connector-curvature="0"
       id="path5538"
       d="m 425,586.4778 25,-25"
       style="fill:none;stroke:#000000;stroke-width:1px;stroke-linecap:butt;stroke-linejoin:miter;stroke-opacity:1" />
    <path
       style="fill:none;stroke:#000000;stroke-width:1px;stroke-linecap:butt;stroke-linejoin:miter;stroke-opacity:1"
       d="m 435,586.4778 25,-25"
       id="path5540"
       inkscape:connector-curvature="0" />
    <path
       inkscape:connector-curvature="0"
       id="path5542"
       d="m 445,586.4778 25,-25"
       style="fill:none;stroke:#000000;stroke-width:1px;stroke-linecap:butt;stroke-linejoin:miter;stroke-opacity:1" />
    <path
       style="fill:none;stroke:#000000;stroke-width:1px;stroke-linecap:butt;stroke-linejoin:miter;stroke-opacity:1"
       d="m 455,586.4778 25,-25"
       id="path5544"
       inkscape:connector-curvature="0" />
    <path
       inkscape:connector-curvature="0"
       id="path5546"
       d="m 465,586.4778 25,-25"
       style="fill:none;stroke:#000000;stroke-width:1px;stroke-linecap:butt;stroke-linejoin:miter;stroke-opacity:1" />
    <path
       style="fill:none;stroke:#000000;stroke-width:1px;stroke-linecap:butt;stroke-linejoin:miter;stroke-opacity:1"
       d="m 475,586.4778 25,-25"
       id="path5548"
       inkscape:connector-curvature="0" />
    <path
       inkscape:connector-curvature="0"
       id="path5550"
       d="m 485,586.4778 25,-25"
       style="fill:none;stroke:#000000;stroke-width:1px;stroke-linecap:butt;stroke-linejoin:miter;stroke-opacity:1" />
    <path
       style="fill:none;stroke:#000000;stroke-width:1px;stroke-linecap:butt;stroke-linejoin:miter;stroke-opacity:1"
       d="m 495,586.4778 25,-25"
       id="path5552"
       inkscape:connector-curvature="0" />
    <path
       inkscape:connector-curvature="0"
       id="path5554"
       d="m 505,586.4778 20,-20"
       style="fill:none;stroke:#000000;stroke-width:1px;stroke-linecap:butt;stroke-linejoin:miter;stroke-opacity:1"
       sodipodi:nodetypes="cc" />
    <path
       style="fill:none;stroke:#000000;stroke-width:1px;stroke-linecap:butt;stroke-linejoin:miter;stroke-opacity:1"
       d="m 515,586.4778 10,-10"
       id="path5556"
       inkscape:connector-curvature="0"
       sodipodi:nodetypes="cc" />
    <path
       inkscape:connector-curvature="0"
       id="path5558"
       d="m 410,581.4778 20,-20"
       style="fill:none;stroke:#000000;stroke-width:1px;stroke-linecap:butt;stroke-linejoin:miter;stroke-opacity:1"
       sodipodi:nodetypes="cc" />
    <path
       style="fill:none;stroke:#000000;stroke-width:1px;stroke-linecap:butt;stroke-linejoin:miter;stroke-opacity:1"
       d="m 410,571.4778 10,-10"
       id="path5560"
       inkscape:connector-curvature="0"
       sodipodi:nodetypes="cc" />
    <g
       transform="scale(1,-1)"
       style="font-size:40px;font-style:normal;font-weight:normal;line-height:125%;letter-spacing:0px;word-spacing:0px;fill:#000000;fill-opacity:1;stroke:none;font-family:Bitstream Vera Sans"
       id="text5566">
      <path
         d="m 412.14661,-609.14966 0,-6.28125 -6.23438,0 0,-2.625 6.23438,0 0,-6.23437 2.65625,0 0,6.23437 6.23437,0 0,2.625 -6.23437,0 0,6.28125 z"
         style="font-size:32px"
         id="path6430" />
    </g>
    <g
       transform="scale(1,-1)"
       style="font-size:40px;font-style:normal;font-weight:normal;line-height:125%;letter-spacing:0px;word-spacing:0px;fill:#000000;fill-opacity:1;stroke:none;font-family:Bitstream Vera Sans"
       id="text5570">
      <path
         d="m 433.14661,-609.14966 0,-6.28125 -6.23438,0 0,-2.625 6.23438,0 0,-6.23437 2.65625,0 0,6.23437 6.23437,0 0,2.625 -6.23437,0 0,6.28125 z"
         style="font-size:32px"
         id="path6427" />
    </g>
    <g
       transform="scale(1,-1)"
       style="font-size:40px;font-style:normal;font-weight:normal;line-height:125%;letter-spacing:0px;word-spacing:0px;fill:#000000;fill-opacity:1;stroke:none;font-family:Bitstream Vera Sans"
       id="text5574">
      <path
         d="m 454.14661,-609.14966 0,-6.28125 -6.23438,0 0,-2.625 6.23438,0 0,-6.23437 2.65625,0 0,6.23437 6.23437,0 0,2.625 -6.23437,0 0,6.28125 z"
         style="font-size:32px"
         id="path6424" />
    </g>
    <g
       transform="scale(1,-1)"
       style="font-size:40px;font-style:normal;font-weight:normal;line-height:125%;letter-spacing:0px;word-spacing:0px;fill:#000000;fill-opacity:1;stroke:none;font-family:Bitstream Vera Sans"
       id="text5578">
      <path
         d="m 478.14661,-609.14966 0,-6.28125 -6.23438,0 0,-2.625 6.23438,0 0,-6.23437 2.65625,0 0,6.23437 6.23437,0 0,2.625 -6.23437,0 0,6.28125 z"
         style="font-size:32px"
         id="path6421" />
    </g>
    <g
       transform="scale(1,-1)"
       style="font-size:40px;font-style:normal;font-weight:normal;line-height:125%;letter-spacing:0px;word-spacing:0px;fill:#000000;fill-opacity:1;stroke:none;font-family:Bitstream Vera Sans"
       id="text5582">
      <path
         d="m 499.14661,-609.14966 0,-6.28125 -6.23438,0 0,-2.625 6.23438,0 0,-6.23437 2.65625,0 0,6.23437 6.23437,0 0,2.625 -6.23437,0 0,6.28125 z"
         style="font-size:32px"
         id="path6418" />
    </g>
    <g
       transform="scale(1,-1)"
       style="font-size:40px;font-style:normal;font-weight:normal;line-height:125%;letter-spacing:0px;word-spacing:0px;fill:#000000;fill-opacity:1;stroke:none;font-family:Bitstream Vera Sans"
       id="text5586">
      <path
         d="m 520.14661,-609.14966 0,-6.28125 -6.23438,0 0,-2.625 6.23438,0 0,-6.23437 2.65625,0 0,6.23437 6.23437,0 0,2.625 -6.23437,0 0,6.28125 z"
         style="font-size:32px"
         id="path6415" />
    </g>
    <g
       transform="scale(1,-1)"
       style="font-size:40px;font-style:normal;font-weight:normal;line-height:125%;letter-spacing:0px;word-spacing:0px;fill:#000000;fill-opacity:1;stroke:none;font-family:Bitstream Vera Sans"
       id="text5590">
      <path
         d="m 408.07001,-529.91589 0,-3.53516 10.80078,0 0,3.53516 z"
         style=""
         id="path6484" />
    </g>
    <g
       transform="scale(1,-1)"
       style="font-size:40px;font-style:normal;font-weight:normal;line-height:125%;letter-spacing:0px;word-spacing:0px;fill:#000000;fill-opacity:1;stroke:none;font-family:Bitstream Vera Sans"
       id="text5594">
      <path
         d="m 429.07001,-529.91589 0,-3.53516 10.80078,0 0,3.53516 z"
         style=""
         id="path6481" />
    </g>
    <g
       transform="scale(1,-1)"
       style="font-size:40px;font-style:normal;font-weight:normal;line-height:125%;letter-spacing:0px;word-spacing:0px;fill:#000000;fill-opacity:1;stroke:none;font-family:Bitstream Vera Sans"
       id="text5598">
      <path
         d="m 450.07001,-529.91589 0,-3.53516 10.80078,0 0,3.53516 z"
         style=""
         id="path6478" />
    </g>
    <g
       transform="scale(1,-1)"
       style="font-size:40px;font-style:normal;font-weight:normal;line-height:125%;letter-spacing:0px;word-spacing:0px;fill:#000000;fill-opacity:1;stroke:none;font-family:Bitstream Vera Sans"
       id="text5602">
      <path
         d="m 474.07001,-529.91589 0,-3.53516 10.80078,0 0,3.53516 z"
         style=""
         id="path6475" />
    </g>
    <g
       transform="scale(1,-1)"
       style="font-size:40px;font-style:normal;font-weight:normal;line-height:125%;letter-spacing:0px;word-spacing:0px;fill:#000000;fill-opacity:1;stroke:none;font-family:Bitstream Vera Sans"
       id="text5606">
      <path
         d="m 495.07001,-529.91589 0,-3.53516 10.80078,0 0,3.53516 z"
         style=""
         id="path6472" />
    </g>
    <g
       transform="scale(1,-1)"
       style="font-size:40px;font-style:normal;font-weight:normal;line-height:125%;letter-spacing:0px;word-spacing:0px;fill:#000000;fill-opacity:1;stroke:none;font-family:Bitstream Vera Sans"
       id="text5610">
      <path
         d="m 516.07001,-529.91589 0,-3.53516 10.80078,0 0,3.53516 z"
         style=""
         id="path6469" />
    </g>
    <path
       sodipodi:nodetypes="cc"
       inkscape:connector-curvature="0"
       id="path5614"
       d="m 160,573.99967 -50,0"
       style="fill:none;stroke:#000000;stroke-width:1px;stroke-linecap:butt;stroke-linejoin:miter;stroke-opacity:1;marker-end:url(#Arrow1Lend)" />
    <path
       sodipodi:nodetypes="cc"
       inkscape:connector-curvature="0"
       id="path5618"
       d="m 525,573.99967 50,0"
       style="fill:none;stroke:#000000;stroke-width:1px;stroke-linecap:butt;stroke-linejoin:miter;stroke-opacity:1;marker-start:url(#Arrow1Lstart);marker-end:none" />
    <path
       style="fill:none;stroke:#000000;stroke-width:1px;stroke-linecap:butt;stroke-linejoin:miter;stroke-opacity:1;marker-start:url(#Arrow1Lstart);marker-end:none"
       d="m 410,573.99967 -50,0"
       id="path5620"
       inkscape:connector-curvature="0"
       sodipodi:nodetypes="cc" />
    <g
       style="font-size:40px;font-style:normal;font-weight:normal;line-height:125%;letter-spacing:0px;word-spacing:0px;fill:#000000;fill-opacity:1;stroke:none;font-family:Bitstream Vera Sans"
       id="text6358">
      <path
         d="m 78.9375,371.31531 c -1.041679,0.88542 -2.044282,1.51041 -3.007813,1.875 -0.96355,0.36458 -1.997403,0.54687 -3.101562,0.54687 -1.822922,0 -3.223962,-0.44531 -4.203125,-1.33593 -0.979168,-0.89063 -1.468751,-2.02865 -1.46875,-3.41407 -10e-7,-0.81249 0.184894,-1.55468 0.554687,-2.22656 0.36979,-0.67187 0.854165,-1.21093 1.453125,-1.61719 0.598955,-0.40624 1.273434,-0.71353 2.023438,-0.92187 0.552078,-0.14583 1.38541,-0.28645 2.5,-0.42188 2.270823,-0.27082 3.942697,-0.59374 5.015625,-0.96875 0.0104,-0.3854 0.01561,-0.63019 0.01563,-0.73437 -1.3e-5,-1.14582 -0.265637,-1.95311 -0.796875,-2.42188 -0.718761,-0.6354 -1.786468,-0.95311 -3.203125,-0.95312 -1.322924,10e-6 -2.299486,0.23178 -2.929688,0.69531 -0.630213,0.46356 -1.096358,1.28387 -1.398437,2.46094 l -2.75,-0.375 c 0.249998,-1.17707 0.661456,-2.12759 1.234375,-2.85156 0.572913,-0.72395 1.401037,-1.28124 2.484375,-1.67188 1.083327,-0.39061 2.338534,-0.58592 3.765625,-0.58594 1.416656,2e-5 2.567697,0.16669 3.453125,0.5 0.885403,0.33335 1.536444,0.75262 1.953125,1.25782 0.416652,0.50522 0.708318,1.14324 0.875,1.91406 0.09373,0.47918 0.140609,1.34376 0.140625,2.59375 l 0,3.75 c -1.6e-5,2.61459 0.05988,4.26823 0.179687,4.96094 0.119776,0.6927 0.356755,1.35677 0.710938,1.99218 l -2.9375,0 c -0.29168,-0.58333 -0.47918,-1.26562 -0.5625,-2.04687 z m -0.234375,-6.28125 c -1.020845,0.41667 -2.552093,0.77084 -4.59375,1.0625 -1.156257,0.16667 -1.973964,0.35417 -2.453125,0.5625 -0.479172,0.20834 -0.848963,0.51302 -1.109375,0.91406 -0.260421,0.40105 -0.390629,0.84636 -0.390625,1.33594 -4e-6,0.75 0.28385,1.375 0.851562,1.875 0.567703,0.5 1.398432,0.75 2.492188,0.75 1.083325,0 2.046865,-0.23698 2.890625,-0.71094 0.843739,-0.47396 1.46353,-1.12239 1.859375,-1.94531 0.302071,-0.63541 0.453112,-1.57291 0.453125,-2.8125 z"
         style="font-size:32px"
         id="path6374" />
      <path
         d="m 87.765625,380.09656 -2.015625,0 c 3.114578,-5 4.671868,-10.00521 4.671875,-15.01563 -7e-6,-1.95832 -0.223965,-3.90103 -0.671875,-5.82812 -0.354172,-1.56249 -0.848963,-3.06249 -1.484375,-4.5 -0.406254,-0.93748 -1.244795,-2.49998 -2.515625,-4.6875 l 2.015625,0 c 1.958327,2.6146 3.406243,5.2396 4.34375,7.875 0.802074,2.27084 1.203115,4.64584 1.203125,7.125 -1e-5,2.8125 -0.539071,5.53125 -1.617188,8.15625 -1.078131,2.625 -2.388026,4.91666 -3.929687,6.875 z"
         style="font-size:32px"
         id="path6376" />
    </g>
    <g
       style="font-size:40px;font-style:normal;font-weight:normal;line-height:125%;letter-spacing:0px;word-spacing:0px;fill:#000000;fill-opacity:1;stroke:none;font-family:Bitstream Vera Sans"
       id="text6362">
      <path
         d="m 70.703125,581.36218 -2.609375,0 0,-22.90625 2.8125,0 0,8.17188 c 1.187494,-1.48957 2.703117,-2.23436 4.546875,-2.23438 1.020823,2e-5 1.986968,0.20575 2.898437,0.61719 0.911446,0.41147 1.661445,0.9896 2.25,1.73438 0.588527,0.7448 1.049464,1.64324 1.382813,2.69531 0.333317,1.05209 0.499984,2.17709 0.5,3.375 -1.6e-5,2.84375 -0.703141,5.04167 -2.109375,6.59375 -1.406263,1.55208 -3.093761,2.32812 -5.0625,2.32812 -1.958341,0 -3.494797,-0.81771 -4.609375,-2.45312 z m -0.03125,-8.42187 c -5e-6,1.98959 0.270828,3.42709 0.8125,4.3125 0.88541,1.44792 2.083326,2.17187 3.59375,2.17187 1.229156,0 2.291655,-0.53385 3.1875,-1.60156 0.89582,-1.0677 1.343736,-2.65885 1.34375,-4.77344 -1.4e-5,-2.16665 -0.429701,-3.76561 -1.289063,-4.79687 -0.859386,-1.03124 -1.898447,-1.54686 -3.117187,-1.54688 -1.229175,2e-5 -2.291674,0.53387 -3.1875,1.60157 -0.895838,1.06772 -1.343755,2.61198 -1.34375,4.63281 z"
         style="font-size:32px"
         id="path6369" />
      <path
         d="m 87.765625,588.09656 -2.015625,0 c 3.114578,-5 4.671868,-10.00521 4.671875,-15.01563 -7e-6,-1.95832 -0.223965,-3.90103 -0.671875,-5.82812 -0.354172,-1.56249 -0.848963,-3.06249 -1.484375,-4.5 -0.406254,-0.93748 -1.244795,-2.49998 -2.515625,-4.6875 l 2.015625,0 c 1.958327,2.6146 3.406243,5.2396 4.34375,7.875 0.802074,2.27084 1.203115,4.64584 1.203125,7.125 -1e-5,2.8125 -0.539071,5.53125 -1.617188,8.15625 -1.078131,2.625 -2.388026,4.91666 -3.929687,6.875 z"
         style="font-size:32px"
         id="path6371" />
    </g>
  </g>
</svg>
