<?xml version="1.0" encoding="utf-8"?>
<!DOCTYPE svg PUBLIC "-//W3C//DTD SVG 1.0//EN" "http://www.w3.org/TR/2001/REC-SVG-20010904/DTD/svg10.dtd">
<svg version="1.0" xmlns="http://www.w3.org/2000/svg" xmlns:xlink="http://www.w3.org/1999/xlink"
     width="100px" height="100px" xml:space="preserve">
<g>
	<g>
		<path fill="#4DB745" d="M13.833,66.38V30.026h10.985l6.596,24.798l6.522-24.798h11.01V66.38h-6.82V37.763L34.911,66.38h-7.067
						l-7.191-28.617V66.38H13.833z"/>
		<path fill="#4DB745" d="M56.261,66.38V30.026h15.448c3.886,0,6.71,0.327,8.47,0.98c1.761,0.653,3.171,1.815,4.228,3.484
						c1.059,1.669,1.587,3.58,1.587,5.728c0,2.729-0.801,4.982-2.404,6.759c-1.604,1.777-4,2.897-7.191,3.359
						c1.587,0.927,2.896,1.943,3.93,3.051c1.033,1.109,2.427,3.075,4.178,5.902l4.44,7.093h-8.779l-5.307-7.912
						c-1.885-2.825-3.174-4.607-3.868-5.342s-1.43-1.24-2.206-1.514c-0.778-0.272-2.01-0.409-3.696-0.409h-1.487V66.38H56.261z
						 M63.602,45.401h5.43c3.523,0,5.721-0.149,6.598-0.446c0.876-0.297,1.562-0.811,2.058-1.538
						c0.496-0.727,0.744-1.637,0.744-2.728c0-1.223-0.327-2.211-0.98-2.964s-1.574-1.226-2.765-1.425
						c-0.596-0.083-2.381-0.125-5.356-0.125h-5.728V45.401z"/>
	</g>
		<polygon fill="none" stroke="#4DB745" stroke-width="5" points="5.458,5.792 94.333,5.792 94.333,94.167 5.583,94.167 			"/>
</g>
</svg>
